<svg xmlns="http://www.w3.org/2000/svg" font-family="ui-monospace, SFMono-Regular, Menlo, Consolas, 'Roboto Mono', monospace" preserveAspectRatio="xMidYMid meet" viewBox="0 0 1200 340"><title>Erupt — Universal Data Management Framework</title><defs><style>.text{fill:#1a1a1a;font-weight:500}.muted{fill:#666}.label{fill:#888;font-size:12px}.border{stroke:silver;fill:none}.card{fill:rgba(0,0,0,.015);stroke:silver}.accent{font-weight:600}.accent,.accent-bg{fill:#ff5722}.accent-stroke{stroke:#ff5722;fill:none}.dot{fill:silver}@media (prefers-color-scheme:dark){.text{fill:#fff;font-weight:500}.muted{fill:#d0d0d0}.label{fill:#b8b8b8;font-size:12px}.border,.card{stroke:#666}.card{fill:rgba(255,255,255,.04)}.dot{fill:#6a6a6a}}</style><pattern id="dotgrid" width="20" height="20" patternUnits="userSpaceOnUse"><circle cx="2" cy="2" r="1" class="dot"/></pattern></defs><rect width="1080" height="4" x="60" y="58" fill="url(#dotgrid)"/><rect width="380" height="184" x="80" y="88" class="card" rx="4"/><line x1="80" x2="460" y1="116" y2="116" class="border"/><text x="98" y="108" class="label">User.java</text><text x="446" y="108" class="label" text-anchor="end">@Erupt</text><g font-size="16"><text x="100" y="148"><tspan class="accent">@Erupt</tspan><tspan class="text">(name = &quot;User&quot;)</tspan></text><text x="100" y="174" class="muted">@Entity</text><text x="100" y="200"><tspan class="text">public class </tspan><tspan class="accent">User</tspan><tspan class="text"> {</tspan></text><text x="120" y="226" class="accent">@EruptField</text><text x="120" y="252" class="text">String name;</text><text x="100" y="270" class="text">}</text></g><text x="610" y="172" class="muted" font-size="13" text-anchor="middle">// generates</text><line x1="490" x2="725" y1="190" y2="190" stroke-width="2" class="accent-stroke"/><polygon points="740 190 725 183 725 197" class="accent-bg"/><text x="610" y="222" class="label" text-anchor="middle">zero controllers · zero frontend</text><rect width="380" height="184" x="760" y="88" class="card" rx="4"/><line x1="760" x2="1140" y1="116" y2="116" class="border"/><g class="muted"><circle cx="776" cy="103" r="3"/><circle cx="789" cy="103" r="3"/><circle cx="802" cy="103" r="3"/></g><text x="950" y="108" class="label" text-anchor="middle">erupt.xyz / users</text><rect width="180" height="22" x="780" y="130" class="card" rx="2"/><text x="790" y="146" class="muted" font-size="12">search…</text><rect width="56" height="22" x="1000" y="130" class="accent-bg" rx="2"/><text x="1028" y="146" fill="#fff" font-size="12" font-weight="600" text-anchor="middle">+ Add</text><rect width="64" height="22" x="1066" y="130" class="card" rx="2"/><text x="1098" y="146" class="muted" font-size="12" text-anchor="middle">Export</text><g font-size="12"><line x1="780" x2="1120" y1="170" y2="170" class="border"/><text x="790" y="185" class="label">Name</text><text x="910" y="185" class="label">Email</text><text x="1020" y="185" class="label">Created</text><line x1="780" x2="1120" y1="193" y2="193" class="border"/><text x="790" y="212" class="text">Alice Chen</text><text x="910" y="212" class="muted">a@e.io</text><text x="1020" y="212" class="muted">2026-05-12</text><line x1="780" x2="1120" y1="220" y2="220" class="border"/><text x="790" y="238" class="text">Bob Liu</text><text x="910" y="238" class="muted">b@e.io</text><text x="1020" y="238" class="muted">2026-05-11</text><line x1="780" x2="1120" y1="246" y2="246" class="border"/><text x="790" y="264" class="text">Charlie Wu</text><text x="910" y="264" class="muted">c@e.io</text><text x="1020" y="264" class="muted">2026-05-10</text></g><rect width="1080" height="4" x="60" y="278" fill="url(#dotgrid)"/><text x="60" y="328" class="label">erupt · universal data management framework · ai harness</text><text x="1140" y="328" class="label" text-anchor="end">drawing №1 · v1.14</text></svg>